<svg version="1.1" id="Layer_1" xmlns="http://www.w3.org/2000/svg" xmlns:xlink="http://www.w3.org/1999/xlink" x="0px" y="0px"
	 width="100%" viewBox="0 0 605 412" enable-background="new 0 0 605 412" xml:space="preserve">
<path fill="#FEFFFF" opacity="1.000000" stroke="none" 
	d="
M442.000000,413.000000 
	C294.666687,413.000000 147.833405,413.000000 1.000079,413.000000 
	C1.000052,275.666748 1.000052,138.333466 1.000026,1.000153 
	C202.666550,1.000102 404.333099,1.000102 605.999756,1.000051 
	C605.999817,138.333176 605.999817,275.666351 605.999878,412.999756 
	C551.500000,413.000000 497.000000,413.000000 442.000000,413.000000 
M382.005402,194.996094 
	C382.005402,194.996094 382.035706,195.039383 382.524536,194.894730 
	C382.656311,194.595764 382.788116,194.296799 383.373932,193.605087 
	C383.607880,193.281631 383.841858,192.958176 384.364075,192.624786 
	C384.573059,192.501617 384.614716,192.336075 384.920349,191.550705 
	C385.076111,191.098206 385.231903,190.645721 385.926270,189.817429 
	C386.776886,188.246124 387.627472,186.674820 388.820801,184.834122 
	C389.009216,184.586853 389.073364,184.310730 389.551239,183.631256 
	C390.021606,182.421677 390.492004,181.212112 391.241516,179.305038 
	C392.860260,172.915833 394.478973,166.526642 396.752258,159.602386 
	C396.867950,153.065063 396.983612,146.527740 397.207581,139.143539 
	C397.182190,137.438080 397.156799,135.732635 397.538269,133.452896 
	C397.404938,131.625549 397.271637,129.798203 397.242157,127.046928 
	C397.213501,122.374969 397.184845,117.703003 397.591125,112.340538 
	C397.648590,99.551491 397.719818,86.762482 397.753082,73.973366 
	C397.760681,71.056458 397.157166,68.809555 393.350769,68.840004 
	C368.267059,69.040710 343.182434,69.123756 317.238129,69.124641 
	C314.848358,69.753532 312.458588,70.382423 309.215790,70.922813 
	C307.798492,70.995819 306.381195,71.068825 304.121399,70.933777 
	C296.811890,73.307533 289.502411,75.681297 281.506042,78.193474 
	C279.335999,79.528038 277.165924,80.862602 274.343231,82.334518 
	C268.451691,87.818382 262.560150,93.302246 256.093628,99.071053 
	C254.898193,100.906311 253.702774,102.741562 251.991348,104.993423 
	C243.302765,117.755440 239.306122,131.965302 239.189667,147.294113 
	C239.074722,162.426788 239.155304,177.560974 239.152664,192.694489 
	C239.150955,202.506332 239.162476,212.318176 239.149414,222.130005 
	C239.145477,225.095520 239.800522,227.570740 243.446182,227.497787 
	C249.900818,227.368637 256.353180,227.127014 263.603668,226.992355 
	C267.758698,225.836090 266.647308,222.200867 266.672485,219.564301 
	C266.880829,197.742752 267.214691,175.911896 266.775299,154.098648 
	C266.512329,141.044968 268.781189,128.985275 276.520447,117.685272 
	C277.070831,116.811241 277.621185,115.937210 278.608215,114.868378 
	C278.871979,114.652222 279.010406,114.373756 279.571045,113.786980 
	C280.039978,113.153809 280.508881,112.520638 281.521149,111.709709 
	C282.005676,111.138847 282.490204,110.567978 283.521149,109.806442 
	C284.027740,109.241920 284.534332,108.677399 285.555786,107.949478 
	C285.739868,107.653046 285.923950,107.356606 286.017426,107.071304 
	C286.017426,107.071304 286.094269,107.120644 286.768799,106.963516 
	C294.080170,101.759270 302.098969,98.234383 311.747833,96.939209 
	C312.228271,96.762619 312.708740,96.586029 313.969818,96.531898 
	C315.781372,96.363762 317.589630,96.121254 319.405060,96.040665 
	C326.423676,95.729134 327.064240,96.337250 327.059662,103.487305 
	C327.053040,113.782455 327.075592,124.078987 326.905701,134.371948 
	C326.843506,138.140762 328.240845,139.959991 332.105072,139.839172 
	C337.403625,139.673508 342.705994,139.631485 348.660706,139.755646 
	C349.105164,139.671188 349.549591,139.586746 350.644623,139.712631 
	C351.089203,139.642319 351.533783,139.572006 352.842194,139.769760 
	C355.231689,139.675232 357.621216,139.580704 360.861328,139.738724 
	C362.932709,139.704514 365.004089,139.670288 367.503113,139.861191 
	C367.503113,139.861191 367.984863,139.817245 368.612762,140.329010 
	C369.091705,141.345444 370.069672,142.413696 369.970367,143.370071 
	C369.208191,150.710663 369.147095,158.302444 367.057281,165.273300 
	C365.209808,171.435745 361.029724,176.898880 357.241089,182.930908 
	C350.486542,187.601776 343.731995,192.272644 336.158112,196.963867 
	C328.118164,197.919662 320.078217,198.875443 311.615448,199.205917 
	C311.114014,196.252747 310.621094,193.298096 310.109131,190.346756 
	C309.301697,185.692078 311.204559,183.238586 316.481964,183.449615 
	C317.658173,183.283432 318.834412,183.117264 320.869812,183.083588 
	C335.511047,183.276672 351.682678,169.323135 352.051575,156.580368 
	C342.039215,156.580368 332.027069,156.580368 321.259186,156.324387 
	C320.470978,156.369720 319.682770,156.415070 318.501373,156.296219 
	C318.501373,156.296219 318.108673,156.461609 317.266571,156.232529 
	C315.523590,156.125534 313.780640,156.018555 311.637268,155.254013 
	C311.095551,153.272369 310.116180,151.297256 310.086426,149.307953 
	C309.943298,139.744110 310.124298,130.175690 310.019440,120.610771 
	C309.999390,118.781143 309.211700,116.959930 308.778137,115.134842 
	C306.838287,115.722610 304.898468,116.310379 302.374512,116.941467 
	C301.901276,117.246124 301.428040,117.550781 300.381500,118.025314 
	C300.107635,118.308937 299.833771,118.592552 299.229645,118.875336 
	C299.229645,118.875336 298.981262,119.093018 298.490479,119.163918 
	C298.159607,119.318970 297.974609,119.578171 297.965851,119.942467 
	C297.965851,119.942467 297.926117,119.926453 297.309479,120.005653 
	C296.552032,120.666908 295.794586,121.328171 294.407013,122.263229 
	C287.741089,128.736313 283.258789,136.479568 283.147339,145.845901 
	C282.841949,171.507980 282.919983,197.175415 283.056641,222.839630 
	C283.063690,224.167709 285.027924,225.485367 286.982666,227.011414 
	C295.351807,226.936096 303.720917,226.860764 312.993439,226.967606 
	C321.299072,226.224747 329.604706,225.481888 338.663879,224.788300 
	C343.822174,222.618515 348.980469,220.448715 354.623993,218.190018 
	C354.623993,218.190018 355.025879,217.903992 355.530212,217.818436 
	C355.749237,217.566666 355.968262,217.314896 356.887390,217.008621 
	C362.932892,212.347351 368.978424,207.686081 375.001221,202.999390 
	C375.001221,202.999390 375.018799,203.026154 375.520782,202.878815 
	C375.705414,202.595001 375.890045,202.311172 376.647675,201.762375 
	C377.419769,200.792404 378.191895,199.822449 379.534149,198.622818 
	C380.052795,197.769394 380.571411,196.915970 381.033844,196.000687 
	C381.033844,196.000687 381.045471,196.083450 381.537445,195.908020 
	C381.707306,195.615646 381.877167,195.323288 382.005402,194.996094 
M125.679367,329.490082 
	C126.096176,328.896362 126.877678,328.302185 126.876892,327.709045 
	C126.852325,309.123840 126.751564,290.538727 126.849106,271.337891 
	C126.800201,270.916199 126.751297,270.494507 126.905296,269.257538 
	C126.509010,266.353302 127.443130,265.043610 130.695023,265.206238 
	C135.982864,265.470642 141.293594,265.277527 146.737976,265.277527 
	C146.737976,259.117462 146.737976,253.387970 146.737976,247.483810 
	C125.927536,247.483810 105.407715,247.483810 84.783081,247.483810 
	C84.783081,253.502960 84.783081,259.212219 84.783081,265.450104 
	C91.517815,265.450104 97.914742,265.450104 104.701897,265.450104 
	C104.701897,287.219177 104.701897,308.459198 104.701897,329.866272 
	C110.409142,329.866272 115.707649,329.866272 121.808388,330.000824 
	C122.867752,329.878937 123.927109,329.757080 125.679367,329.490082 
M492.809570,248.477081 
	C492.854614,248.655334 492.899689,248.833588 492.715668,249.923706 
	C492.783112,275.946472 492.850555,301.969208 492.812256,328.886322 
	C499.843414,328.979584 506.874542,329.083557 513.906006,329.115723 
	C514.122864,329.116699 514.343201,328.371826 514.821472,327.194305 
	C514.821472,318.956238 514.821472,310.718201 514.821472,301.962646 
	C519.281494,301.962646 522.940674,302.180634 526.566345,301.924957 
	C542.401794,300.808197 552.338867,289.985443 552.429810,273.936554 
	C552.517578,258.451538 543.939209,249.017593 527.648682,247.842712 
	C516.709290,247.053757 505.690247,247.359589 494.706177,247.230194 
	C494.182312,247.224014 493.652222,247.747665 492.809570,248.477081 
M320.723267,284.722687 
	C320.121704,280.612122 319.826050,276.428314 318.862671,272.404388 
	C315.662201,259.036499 307.261719,249.920685 293.890625,247.486069 
	C285.293823,245.920746 275.965912,246.310593 267.285553,247.751312 
	C254.528809,249.868591 246.269989,258.513489 243.117401,270.885406 
	C241.300476,278.015625 240.770401,285.683868 240.974289,293.073730 
	C241.361191,307.095673 245.978180,319.669067 259.515015,326.054474 
	C274.840302,333.283447 290.662384,333.082214 305.314392,324.054352 
	C309.712555,321.344391 313.178741,316.426392 315.886627,311.822784 
	C320.575439,303.851410 320.805817,294.700500 320.723267,284.722687 
M158.862747,297.499969 
	C158.862747,308.102966 158.862747,318.705963 158.862747,329.469025 
	C169.702698,329.469025 180.023712,329.938477 190.287735,329.373199 
	C213.001678,328.122192 226.337708,314.975800 228.594910,292.353485 
	C230.981277,268.436829 220.155243,251.461426 198.630798,248.559448 
	C185.765533,246.824936 172.475479,248.241257 158.864563,248.241257 
	C158.864563,263.938354 158.864563,280.219147 158.862747,297.499969 
M394.328491,280.070129 
	C391.054382,270.116913 387.707397,260.186676 384.558228,250.194061 
	C383.786407,247.744949 382.680450,246.796783 380.020233,246.862778 
	C372.529633,247.048599 365.025848,247.078491 357.538300,246.832932 
	C354.452209,246.731705 353.303436,247.836151 352.394104,250.693039 
	C346.142090,270.335602 339.663727,289.906097 333.291107,309.510437 
	C331.164368,316.052917 329.133850,322.626617 326.963379,329.489594 
	C328.804932,329.593170 329.954376,329.711914 331.103973,329.713379 
	C336.933655,329.720795 342.773926,329.878754 348.584473,329.539154 
	C349.809845,329.467529 351.470459,327.745239 351.989960,326.415924 
	C353.489349,322.579620 353.357880,316.915619 356.024536,315.044434 
	C358.975281,312.974030 364.314087,314.306335 368.612976,314.159424 
	C368.945709,314.148041 369.279572,314.147461 369.612244,314.159790 
	C373.727509,314.312317 378.862946,313.042542 381.657471,315.042633 
	C384.214203,316.872589 384.239929,322.238525 385.381775,326.045990 
	C385.525177,326.524231 385.534271,327.141022 385.846436,327.451294 
	C386.674347,328.274231 387.618500,329.585266 388.544067,329.608704 
	C395.644928,329.788330 402.752411,329.707397 410.633636,329.707397 
	C405.138000,312.932037 399.876282,296.870636 394.328491,280.070129 
M419.726807,262.637329 
	C419.726807,284.904572 419.726807,307.171844 419.726807,329.332947 
	C427.437500,329.332947 434.521820,329.332947 442.011841,329.332947 
	C442.011841,320.199707 442.011841,311.434631 442.011841,302.791809 
	C448.186066,302.115326 454.044769,301.994659 459.655304,300.752808 
	C472.256287,297.963593 479.629700,287.290833 479.362335,273.157501 
	C479.101837,259.390137 472.234589,250.198212 458.770142,248.533966 
	C446.006714,246.956375 433.012665,247.244781 419.726746,246.696335 
	C419.726746,252.396469 419.726746,257.037445 419.726807,262.637329 
z"/>
<path fill="#353535" opacity="1.000000" stroke="none" 
	d="
M320.739685,285.190216 
	C320.805817,294.700500 320.575439,303.851410 315.886627,311.822784 
	C313.178741,316.426392 309.712555,321.344391 305.314392,324.054352 
	C290.662384,333.082214 274.840302,333.283447 259.515015,326.054474 
	C245.978180,319.669067 241.361191,307.095673 240.974289,293.073730 
	C240.770401,285.683868 241.300476,278.015625 243.117401,270.885406 
	C246.269989,258.513489 254.528809,249.868591 267.285553,247.751312 
	C275.965912,246.310593 285.293823,245.920746 293.890625,247.486069 
	C307.261719,249.920685 315.662201,259.036499 318.862671,272.404388 
	C319.826050,276.428314 320.121704,280.612122 320.739685,285.190216 
M264.141357,293.093384 
	C264.679657,295.682739 265.009094,298.337402 265.794952,300.849304 
	C268.269531,308.758789 273.299744,312.343689 281.275970,312.134674 
	C288.820007,311.936951 293.971100,308.039032 295.861511,300.277527 
	C297.930786,291.781433 298.191711,283.148102 295.360077,274.722260 
	C292.946503,267.540283 288.052460,264.100830 280.847443,264.066620 
	C273.547028,264.031952 267.944885,267.629028 266.061829,275.001495 
	C264.648926,280.533325 264.713318,286.442505 264.141357,293.093384 
z"/>
<path fill="#353535" opacity="1.000000" stroke="none" 
	d="
M158.863647,296.999939 
	C158.864563,280.219147 158.864563,263.938354 158.864563,248.241257 
	C172.475479,248.241257 185.765533,246.824936 198.630798,248.559448 
	C220.155243,251.461426 230.981277,268.436829 228.594910,292.353485 
	C226.337708,314.975800 213.001678,328.122192 190.287735,329.373199 
	C180.023712,329.938477 169.702698,329.469025 158.862747,329.469025 
	C158.862747,318.705963 158.862747,308.102966 158.863647,296.999939 
M203.446747,274.316040 
	C198.847992,266.236877 191.494415,263.379059 181.374908,265.753052 
	C181.374908,280.805023 181.374908,295.860504 181.374908,310.866333 
	C194.891571,312.798523 203.471344,307.239258 204.849625,294.702759 
	C205.557266,288.266113 204.181549,281.600433 203.446747,274.316040 
z"/>
<path fill="#363636" opacity="1.000000" stroke="none" 
	d="
M394.471527,280.439697 
	C399.876282,296.870636 405.138000,312.932037 410.633636,329.707397 
	C402.752411,329.707397 395.644928,329.788330 388.544067,329.608704 
	C387.618500,329.585266 386.674347,328.274231 385.846436,327.451294 
	C385.534271,327.141022 385.525177,326.524231 385.381775,326.045990 
	C384.239929,322.238525 384.214203,316.872589 381.657471,315.042633 
	C378.862946,313.042542 373.727509,314.312317 369.612244,314.159790 
	C369.279572,314.147461 368.945709,314.148041 368.612976,314.159424 
	C364.314087,314.306335 358.975281,312.974030 356.024536,315.044434 
	C353.357880,316.915619 353.489349,322.579620 351.989960,326.415924 
	C351.470459,327.745239 349.809845,329.467529 348.584473,329.539154 
	C342.773926,329.878754 336.933655,329.720795 331.103973,329.713379 
	C329.954376,329.711914 328.804932,329.593170 326.963379,329.489594 
	C329.133850,322.626617 331.164368,316.052917 333.291107,309.510437 
	C339.663727,289.906097 346.142090,270.335602 352.394104,250.693039 
	C353.303436,247.836151 354.452209,246.731705 357.538300,246.832932 
	C365.025848,247.078491 372.529633,247.048599 380.020233,246.862778 
	C382.680450,246.796783 383.786407,247.744949 384.558228,250.194061 
	C387.707397,260.186676 391.054382,270.116913 394.471527,280.439697 
M377.109711,295.459290 
	C374.460480,284.472870 371.811279,273.486481 369.162079,262.500061 
	C368.907562,262.562866 368.653046,262.625671 368.398529,262.688446 
	C365.692902,273.582214 362.987244,284.475983 360.156158,295.874878 
	C365.868073,295.874878 371.145111,295.874878 377.109711,295.459290 
z"/>
<path fill="#353535" opacity="1.000000" stroke="none" 
	d="
M419.726776,262.157867 
	C419.726746,257.037445 419.726746,252.396469 419.726746,246.696335 
	C433.012665,247.244781 446.006714,246.956375 458.770142,248.533966 
	C472.234589,250.198212 479.101837,259.390137 479.362335,273.157501 
	C479.629700,287.290833 472.256287,297.963593 459.655304,300.752808 
	C454.044769,301.994659 448.186066,302.115326 442.011841,302.791809 
	C442.011841,311.434631 442.011841,320.199707 442.011841,329.332947 
	C434.521820,329.332947 427.437500,329.332947 419.726807,329.332947 
	C419.726807,307.171844 419.726807,284.904572 419.726776,262.157867 
M448.089600,265.050171 
	C446.155273,265.050171 444.220947,265.050171 442.120056,265.050171 
	C442.120056,271.634216 442.120056,277.681366 442.120056,283.689972 
	C450.567566,284.758301 455.511383,282.072266 456.760925,275.929108 
	C457.962891,270.019714 455.554199,266.686890 448.089600,265.050171 
z"/>
<path fill="#353535" opacity="1.000000" stroke="none" 
	d="
M492.917999,327.991974 
	C492.850555,301.969208 492.783112,275.946472 492.999847,249.393341 
	C493.367615,248.774185 493.538849,248.639954 493.520294,248.604156 
	C493.413422,248.398071 493.261597,248.215271 493.125000,248.024567 
	C493.652222,247.747665 494.182312,247.224014 494.706177,247.230194 
	C505.690247,247.359589 516.709290,247.053757 527.648682,247.842712 
	C543.939209,249.017593 552.517578,258.451538 552.429810,273.936554 
	C552.338867,289.985443 542.401794,300.808197 526.566345,301.924957 
	C522.940674,302.180634 519.281494,301.962646 514.821472,301.962646 
	C514.821472,310.718201 514.821472,318.956238 514.176392,327.585785 
	C506.660156,327.982178 499.789093,327.987091 492.917999,327.991974 
M514.825439,276.462006 
	C514.825439,278.895630 514.825439,281.329285 514.825439,283.959869 
	C520.555603,284.384369 525.990601,284.375793 528.290222,279.042725 
	C529.609192,275.983856 529.797974,271.131927 528.215088,268.416595 
	C525.458130,263.687286 519.953369,264.979523 514.826111,265.316162 
	C514.826111,268.914185 514.826111,272.199432 514.825439,276.462006 
z"/>
<path fill="#373737" opacity="1.000000" stroke="none" 
	d="
M126.662437,271.953613 
	C126.751564,290.538727 126.852325,309.123840 126.876892,327.709045 
	C126.877678,328.302185 126.096176,328.896362 125.245476,329.248016 
	C123.543114,329.292725 122.274635,329.579498 121.006157,329.866272 
	C115.707649,329.866272 110.409142,329.866272 104.701897,329.866272 
	C104.701897,308.459198 104.701897,287.219177 104.701897,265.450104 
	C97.914742,265.450104 91.517815,265.450104 84.783081,265.450104 
	C84.783081,259.212219 84.783081,253.502960 84.783081,247.483810 
	C105.407715,247.483810 125.927536,247.483810 146.737976,247.483810 
	C146.737976,253.387970 146.737976,259.117462 146.737976,265.277527 
	C141.293594,265.277527 135.982864,265.470642 130.695023,265.206238 
	C127.443130,265.043610 126.509010,266.353302 126.423462,269.660950 
	C125.497658,270.415100 125.053673,270.765839 124.609695,271.116608 
	C125.293945,271.395599 125.978188,271.674622 126.662437,271.953613 
z"/>
<path fill="#5EEC8A" opacity="1.000000" stroke="none" 
	d="
M396.097717,160.137436 
	C394.478973,166.526642 392.860260,172.915833 390.747070,179.720917 
	C389.839508,181.426437 389.426392,182.716080 389.013275,184.005722 
	C389.073364,184.310730 389.009216,184.586853 388.287476,185.034393 
	C386.545624,186.687241 382.815186,186.936234 385.387695,190.193237 
	C385.231903,190.645721 385.076111,191.098206 384.619690,191.907776 
	C384.319061,192.264832 384.075836,192.634720 384.075836,192.634720 
	C383.841858,192.958176 383.607880,193.281631 382.923920,193.798859 
	C382.473907,193.992630 382.026337,193.986816 381.956024,193.629852 
	C380.321747,191.762009 379.194397,190.736038 379.643585,187.726746 
	C380.763855,180.221710 381.410950,172.457321 380.721222,164.937073 
	C380.260223,159.911179 378.695679,155.038452 379.978241,149.912781 
	C380.493805,147.852295 380.958527,145.746933 381.120331,143.636993 
	C381.429779,139.601486 381.797028,135.533844 381.600342,131.505905 
	C381.384216,127.080505 380.186035,122.694099 380.076111,118.274284 
	C379.831909,108.453262 380.540741,98.581573 379.810455,88.809052 
	C379.321259,82.262367 380.223389,76.190865 382.455261,70.045876 
	C384.737457,70.017632 386.559570,70.000946 388.381653,70.002228 
	C395.452728,70.007195 396.007172,70.557602 396.013336,77.642532 
	C396.022095,87.747025 395.967834,97.852066 396.073029,107.955498 
	C396.090698,109.650917 396.778198,111.339371 397.156189,113.031044 
	C397.184845,117.703003 397.213501,122.374969 396.890076,127.741745 
	C396.735809,130.300110 396.933624,132.163635 397.131409,134.027176 
	C397.156799,135.732635 397.182190,137.438080 396.881439,139.755981 
	C396.402771,146.958084 396.250244,153.547760 396.097717,160.137436 
z"/>
<path fill="#41BDCE" opacity="1.000000" stroke="none" 
	d="
M286.080963,226.807877 
	C285.027924,225.485367 283.063690,224.167709 283.056641,222.839630 
	C282.919983,197.175415 282.841949,171.507980 283.147339,145.845901 
	C283.258789,136.479568 287.741089,128.736313 294.963257,122.147408 
	C295.519501,122.031586 296.001190,122.086525 295.869690,122.374275 
	C296.158783,130.429550 296.897705,138.195267 296.942200,145.964951 
	C297.094818,172.629257 297.004059,199.294983 296.554321,225.973343 
	C292.762024,226.260300 289.421478,226.534088 286.080963,226.807877 
z"/>
<path fill="#59E991" opacity="1.000000" stroke="none" 
	d="
M381.995117,70.065689 
	C380.223389,76.190865 379.321259,82.262367 379.810455,88.809052 
	C380.540741,98.581573 379.831909,108.453262 380.076111,118.274284 
	C380.186035,122.694099 381.384216,127.080505 381.600342,131.505905 
	C381.797028,135.533844 381.429779,139.601486 381.120331,143.636993 
	C380.958527,145.746933 380.493805,147.852295 379.978241,149.912781 
	C378.695679,155.038452 380.260223,159.911179 380.721222,164.937073 
	C381.410950,172.457321 380.763855,180.221710 379.643585,187.726746 
	C379.194397,190.736038 380.321747,191.762009 381.948090,193.893219 
	C382.018890,194.688812 382.027313,194.864105 382.035706,195.039383 
	C382.035706,195.039383 382.005402,194.996094 381.791199,195.114716 
	C381.399841,195.516708 381.222656,195.800079 381.045471,196.083450 
	C381.045471,196.083450 381.033844,196.000687 380.716675,196.054688 
	C379.920959,197.023270 379.442474,197.937866 378.963989,198.852478 
	C378.191895,199.822449 377.419769,200.792404 376.123962,201.987976 
	C375.406433,202.484421 375.212616,202.755280 375.018799,203.026154 
	C375.018799,203.026154 375.001221,202.999390 374.626862,203.002258 
	C372.255096,203.788467 370.257660,204.571808 368.166534,205.391891 
	C367.915955,205.079941 367.372742,204.719330 367.343170,204.320663 
	C366.655060,195.034607 365.955719,185.748047 365.452942,176.451065 
	C365.378754,175.078796 366.222473,173.629929 366.750916,172.258652 
	C367.449585,170.445679 368.277771,168.683121 369.012726,166.883530 
	C372.824646,157.549622 371.963989,147.729935 371.952393,137.615952 
	C371.883240,134.501984 371.899933,131.774597 371.825317,129.049698 
	C371.567383,119.634415 370.756470,110.198303 371.147430,100.811417 
	C371.533905,91.531761 368.465240,81.969887 373.249542,72.692169 
	C376.340149,71.634644 379.167633,70.850174 381.995117,70.065689 
z"/>
<path fill="#51E0A7" opacity="1.000000" stroke="none" 
	d="
M351.978363,139.501709 
	C351.533783,139.572006 351.089203,139.642319 350.247467,139.341446 
	C349.232330,138.646835 348.614319,138.323425 347.536499,138.000977 
	C344.419647,137.999481 341.643951,138.461395 339.149261,137.823837 
	C337.604706,137.429108 335.393280,135.398499 335.350098,134.042694 
	C334.987274,122.651108 335.018829,111.245735 335.022614,99.844551 
	C335.023560,96.918251 335.617218,93.978188 335.467834,91.068611 
	C335.132050,84.529076 334.229462,77.969353 338.453949,71.995621 
	C343.602631,72.321548 348.298981,72.647385 352.996338,73.373947 
	C352.534943,76.605881 351.673248,79.442368 351.710602,82.266960 
	C351.757843,85.841202 352.964661,89.410400 352.925995,92.973694 
	C352.757782,108.484634 352.318909,123.992638 351.978363,139.501709 
z"/>
<path fill="#44C9C6" opacity="1.000000" stroke="none" 
	d="
M297.006104,225.960159 
	C297.004059,199.294983 297.094818,172.629257 296.942200,145.964951 
	C296.897705,138.195267 296.158783,130.429550 296.192566,122.300583 
	C297.073334,121.268242 297.499725,120.597343 297.926117,119.926453 
	C297.926117,119.926453 297.965851,119.942467 298.176331,119.872429 
	C298.674713,119.641144 298.872864,119.404686 298.981262,119.093018 
	C298.981262,119.093018 299.229645,118.875336 299.704346,118.824524 
	C300.437653,118.467628 300.696228,118.161537 300.954803,117.855438 
	C301.428040,117.550781 301.901276,117.246124 302.837982,117.146576 
	C305.983276,119.964592 308.416351,122.454651 308.081818,126.853119 
	C307.179352,138.718903 306.332184,150.609665 306.139709,162.501465 
	C306.007599,170.663132 307.050049,178.840881 307.474884,187.016266 
	C307.601288,189.448715 307.207428,191.916000 307.424438,194.333893 
	C307.679626,197.176758 308.844269,200.005798 308.719208,202.800781 
	C308.464905,208.483704 307.106903,214.143997 307.155457,219.805466 
	C307.196442,224.584549 305.064728,225.943375 300.995789,225.986618 
	C299.666138,226.000763 298.335999,225.970245 297.006104,225.960159 
z"/>
<path fill="#58D9B2" opacity="1.000000" stroke="none" 
	d="
M338.001617,71.995529 
	C334.229462,77.969353 335.132050,84.529076 335.467834,91.068611 
	C335.617218,93.978188 335.023560,96.918251 335.022614,99.844551 
	C335.018829,111.245735 334.987274,122.651108 335.350098,134.042694 
	C335.393280,135.398499 337.604706,137.429108 339.149261,137.823837 
	C341.643951,138.461395 344.419647,137.999481 347.539581,138.257660 
	C348.003906,138.854416 348.005310,139.195450 348.006744,139.536469 
	C342.705994,139.631485 337.403625,139.673508 332.105072,139.839172 
	C328.240845,139.959991 326.843506,138.140762 326.905701,134.371948 
	C327.075592,124.078987 327.053040,113.782455 327.059662,103.487305 
	C327.064240,96.337250 326.423676,95.729134 319.405060,96.040665 
	C317.589630,96.121254 315.781372,96.363762 313.773987,96.242630 
	C321.144653,94.224892 324.178680,89.583778 323.141724,81.860023 
	C322.945343,80.397499 324.752777,78.761063 325.171021,77.088676 
	C325.467896,75.901573 325.199585,73.463455 324.815125,73.384811 
	C320.246490,72.450241 315.608582,71.854294 310.760620,71.119598 
	C310.532379,71.069679 310.068817,71.011307 310.068817,71.011307 
	C312.458588,70.382423 314.848358,69.753532 317.985260,69.428757 
	C323.463654,69.824020 328.206970,69.749733 332.919861,70.092911 
	C334.650787,70.218956 336.309814,71.332458 338.001617,71.995529 
z"/>
<path fill="#42A9DC" opacity="1.000000" stroke="none" 
	d="
M256.668610,98.786110 
	C262.560150,93.302246 268.451691,87.818382 274.685059,82.644592 
	C275.676361,84.406670 276.834564,85.841667 276.883759,87.313736 
	C277.059204,92.562775 278.981323,97.591133 277.318909,103.167259 
	C276.373627,106.337967 278.358276,110.382156 279.023438,114.032982 
	C279.010406,114.373756 278.871979,114.652222 278.052979,114.970825 
	C276.990967,116.049789 276.484161,117.026299 275.977386,118.002815 
	C268.781189,128.985275 266.512329,141.044968 266.775299,154.098648 
	C267.214691,175.911896 266.880829,197.742752 266.672485,219.564301 
	C266.647308,222.200867 267.758698,225.836090 262.872986,226.954361 
	C261.082886,226.601166 260.023468,226.285965 258.978088,225.729584 
	C258.992157,225.488373 259.006104,225.004715 259.394409,224.960419 
	C263.203094,224.409882 264.182465,222.501480 264.094177,219.048355 
	C263.839447,209.084442 264.004517,199.109787 264.004944,189.139359 
	C264.005554,174.349869 264.352173,159.548294 263.835510,144.776901 
	C263.631226,138.936417 263.164795,133.649872 266.479248,128.284729 
	C268.180847,125.530304 268.189453,121.522423 268.313446,118.057739 
	C268.444519,114.395348 267.575928,110.704597 267.587433,107.027618 
	C267.593964,104.936447 269.113617,102.753197 268.815125,100.783699 
	C268.482239,98.587601 267.141785,96.325058 265.610077,94.676697 
	C265.203461,94.239098 262.443115,95.869072 260.841095,96.699486 
	C259.553864,97.366753 258.383911,98.260269 257.041382,98.981400 
	C256.920837,98.909424 256.668610,98.786110 256.668610,98.786110 
z"/>
<path fill="#4ED0BE" opacity="1.000000" stroke="none" 
	d="
M296.554321,225.973343 
	C298.335999,225.970245 299.666138,226.000763 300.995789,225.986618 
	C305.064728,225.943375 307.196442,224.584549 307.155457,219.805466 
	C307.106903,214.143997 308.464905,208.483704 308.719208,202.800781 
	C308.844269,200.005798 307.679626,197.176758 307.424438,194.333893 
	C307.207428,191.916000 307.601288,189.448715 307.474884,187.016266 
	C307.050049,178.840881 306.007599,170.663132 306.139709,162.501465 
	C306.332184,150.609665 307.179352,138.718903 308.081818,126.853119 
	C308.416351,122.454651 305.983276,119.964592 303.130035,117.124908 
	C304.898468,116.310379 306.838287,115.722610 308.778137,115.134842 
	C309.211700,116.959930 309.999390,118.781143 310.019440,120.610771 
	C310.124298,130.175690 309.943298,139.744110 310.086426,149.307953 
	C310.116180,151.297256 311.095551,153.272369 311.862427,155.897308 
	C314.048065,157.732574 317.713165,158.954132 317.693085,160.111710 
	C317.559906,167.779175 316.636169,175.432892 315.969757,183.091095 
	C311.204559,183.238586 309.301697,185.692078 310.109131,190.346756 
	C310.621094,193.298096 311.114014,196.252747 312.023376,199.832779 
	C314.548401,201.225540 316.665527,201.991425 317.906433,202.440338 
	C317.906433,210.401932 317.906433,217.797501 317.906433,225.328079 
	C315.784302,225.859802 313.937195,226.322632 312.090057,226.785446 
	C303.720917,226.860764 295.351807,226.936096 286.531799,226.909637 
	C289.421478,226.534088 292.762024,226.260300 296.554321,225.973343 
z"/>
<path fill="#55E798" opacity="1.000000" stroke="none" 
	d="
M372.986420,72.965218 
	C368.465240,81.969887 371.533905,91.531761 371.147430,100.811417 
	C370.756470,110.198303 371.567383,119.634415 371.825317,129.049698 
	C371.899933,131.774597 371.883240,134.501984 371.584412,137.615204 
	C370.157410,138.333405 369.054413,138.664612 367.777191,139.061493 
	C367.372314,139.240005 367.196472,139.409637 367.075470,139.636078 
	C365.004089,139.670288 362.932709,139.704514 360.373413,139.307434 
	C360.257019,134.585693 360.848358,130.301041 360.960968,126.003815 
	C361.391235,109.588966 361.596100,93.167740 362.133179,76.757019 
	C362.177185,75.412079 363.839233,73.611565 365.200531,72.947510 
	C366.886505,72.125053 369.043640,72.268463 371.166138,72.235474 
	C371.885468,72.639290 372.435944,72.802254 372.986420,72.965218 
z"/>
<path fill="#59E49E" opacity="1.000000" stroke="none" 
	d="
M370.997253,71.994614 
	C369.043640,72.268463 366.886505,72.125053 365.200531,72.947510 
	C363.839233,73.611565 362.177185,75.412079 362.133179,76.757019 
	C361.596100,93.167740 361.391235,109.588966 360.960968,126.003815 
	C360.848358,130.301041 360.257019,134.585693 359.948120,139.181152 
	C357.621216,139.580704 355.231689,139.675232 352.410278,139.635742 
	C352.318909,123.992638 352.757782,108.484634 352.925995,92.973694 
	C352.964661,89.410400 351.757843,85.841202 351.710602,82.266960 
	C351.673248,79.442368 352.534943,76.605881 353.218262,73.080902 
	C358.714294,67.972412 364.692841,70.296928 370.454376,70.673210 
	C370.663239,70.686859 370.817535,71.535248 370.997253,71.994614 
z"/>
<path fill="#59E49E" opacity="1.000000" stroke="none" 
	d="
M367.951447,138.995819 
	C369.054413,138.664612 370.157410,138.333405 371.628357,138.002930 
	C371.963989,147.729935 372.824646,157.549622 369.012726,166.883530 
	C368.277771,168.683121 367.449585,170.445679 366.750916,172.258652 
	C366.222473,173.629929 365.378754,175.078796 365.452942,176.451065 
	C365.955719,185.748047 366.655060,195.034607 367.343170,204.320663 
	C367.372742,204.719330 367.915955,205.079941 368.166534,205.391891 
	C370.257660,204.571808 372.255096,203.788467 374.638214,203.014954 
	C368.978424,207.686081 362.932892,212.347351 356.292175,217.096680 
	C355.473267,217.424469 355.249573,217.664230 355.025879,217.903992 
	C355.025879,217.903992 354.623993,218.190018 354.199097,217.926392 
	C351.755341,215.927200 350.007233,214.220886 352.769012,211.593842 
	C353.333618,211.056808 353.531860,209.824860 353.439362,208.962540 
	C353.106903,205.863998 352.429443,202.799622 352.156067,199.698227 
	C351.704224,194.572433 351.098022,189.372543 356.603241,186.046112 
	C357.412903,185.556900 357.472748,183.826767 357.879517,182.670776 
	C361.029724,176.898880 365.209808,171.435745 367.057281,165.273300 
	C369.147095,158.302444 369.208191,150.710663 369.970367,143.370071 
	C370.069672,142.413696 369.091705,141.345444 368.297852,139.867767 
	C367.982910,139.406540 367.951447,138.995834 367.951447,138.995819 
z"/>
<path fill="#56DFA8" opacity="1.000000" stroke="none" 
	d="
M357.560303,182.800842 
	C357.472748,183.826767 357.412903,185.556900 356.603241,186.046112 
	C351.098022,189.372543 351.704224,194.572433 352.156067,199.698227 
	C352.429443,202.799622 353.106903,205.863998 353.439362,208.962540 
	C353.531860,209.824860 353.333618,211.056808 352.769012,211.593842 
	C350.007233,214.220886 351.755341,215.927200 353.956482,217.970856 
	C348.980469,220.448715 343.822174,222.618515 338.050629,224.513214 
	C336.961273,223.438446 336.125824,222.661911 336.072540,221.834961 
	C335.864990,218.616302 336.419403,215.268631 335.739624,212.178101 
	C334.572601,206.872879 334.537231,201.860733 336.977448,196.943512 
	C343.731995,192.272644 350.486542,187.601776 357.560303,182.800842 
z"/>
<path fill="#53D9B3" opacity="1.000000" stroke="none" 
	d="
M336.567780,196.953690 
	C334.537231,201.860733 334.572601,206.872879 335.739624,212.178101 
	C336.419403,215.268631 335.864990,218.616302 336.072540,221.834961 
	C336.125824,222.661911 336.961273,223.438446 337.673859,224.488586 
	C329.604706,225.481888 321.299072,226.224747 312.541748,226.876526 
	C313.937195,226.322632 315.784302,225.859802 317.906433,225.328079 
	C317.906433,217.797501 317.906433,210.401932 317.906433,202.440338 
	C316.665527,201.991425 314.548401,201.225540 312.234772,200.145432 
	C320.078217,198.875443 328.118164,197.919662 336.567780,196.953690 
z"/>
<path fill="#53D9B3" opacity="1.000000" stroke="none" 
	d="
M316.225861,183.270355 
	C316.636169,175.432892 317.559906,167.779175 317.693085,160.111710 
	C317.713165,158.954132 314.048065,157.732574 312.062622,156.226105 
	C313.780640,156.018555 315.523590,156.125534 317.770966,156.430679 
	C318.275360,156.628830 318.612885,156.668442 318.612885,156.668442 
	C318.612885,156.668442 318.894562,156.460403 318.894562,156.460419 
	C319.682770,156.415070 320.470978,156.369720 321.787231,156.777939 
	C324.719360,157.489029 327.118134,157.823273 329.528534,157.987946 
	C334.410065,158.321472 337.077972,162.238846 335.993164,166.868973 
	C335.306183,169.801270 335.419800,172.921127 335.083435,177.080811 
	C330.643219,178.810104 325.326904,180.880585 320.010620,182.951080 
	C318.834412,183.117264 317.658173,183.283432 316.225861,183.270355 
z"/>
<path fill="#40B6D4" opacity="1.000000" stroke="none" 
	d="
M279.297241,113.909981 
	C278.358276,110.382156 276.373627,106.337967 277.318909,103.167259 
	C278.981323,97.591133 277.059204,92.562775 276.883759,87.313736 
	C276.834564,85.841667 275.676361,84.406670 275.011414,82.575912 
	C277.165924,80.862602 279.335999,79.528038 282.220398,78.112328 
	C286.557739,77.170609 290.905670,77.117508 290.710114,81.685989 
	C290.363617,89.781006 294.526245,98.974213 286.281921,105.686302 
	C286.010193,105.907509 286.147583,106.631187 286.094269,107.120644 
	C286.094269,107.120644 286.017426,107.071304 285.812683,107.157211 
	C285.418945,107.533035 285.229950,107.822952 285.040924,108.112869 
	C284.534332,108.677399 284.027740,109.241920 282.936768,109.937149 
	C281.894165,110.674385 281.436005,111.280930 280.977814,111.887466 
	C280.508881,112.520638 280.039978,113.153809 279.297241,113.909981 
z"/>
<path fill="#49C1CB" opacity="1.000000" stroke="none" 
	d="
M286.431519,107.042084 
	C286.147583,106.631187 286.010193,105.907509 286.281921,105.686302 
	C294.526245,98.974213 290.363617,89.781006 290.710114,81.685989 
	C290.905670,77.117508 286.557739,77.170609 282.563812,78.043121 
	C289.502411,75.681297 296.811890,73.307533 304.385681,71.356903 
	C302.857727,72.936501 301.065460,74.092964 300.247284,74.620888 
	C300.657257,82.292480 301.037079,89.399963 301.440430,96.947296 
	C304.813690,96.612755 307.882965,96.308357 310.960815,96.193817 
	C310.969391,96.383659 310.983002,96.763481 310.983002,96.763481 
	C302.098969,98.234383 294.080170,101.759270 286.431519,107.042084 
z"/>
<path fill="#5EDCAC" opacity="1.000000" stroke="none" 
	d="
M320.440216,183.017334 
	C325.326904,180.880585 330.643219,178.810104 335.083435,177.080811 
	C335.419800,172.921127 335.306183,169.801270 335.993164,166.868973 
	C337.077972,162.238846 334.410065,158.321472 329.528534,157.987946 
	C327.118134,157.823273 324.719360,157.489029 322.165100,156.905930 
	C332.027069,156.580368 342.039215,156.580368 352.051575,156.580368 
	C351.682678,169.323135 335.511047,183.276672 320.440216,183.017334 
z"/>
<path fill="#5EA1E1" opacity="1.000000" stroke="none" 
	d="
M258.964020,225.970764 
	C260.023468,226.285965 261.082886,226.601166 262.474426,226.924408 
	C256.353180,227.127014 249.900818,227.368637 243.446182,227.497787 
	C239.800522,227.570740 239.145477,225.095520 239.149414,222.130005 
	C239.162476,212.318176 239.150955,202.506332 239.152664,192.694489 
	C239.155304,177.560974 239.074722,162.426788 239.189667,147.294113 
	C239.306122,131.965302 243.302765,117.755440 252.381104,104.898132 
	C252.770874,104.802849 253.035095,105.028046 252.977493,105.387505 
	C251.941025,107.981766 250.881531,110.185303 250.000351,112.457977 
	C248.260651,116.944740 246.619720,121.469795 244.765091,126.307770 
	C243.385361,132.218094 241.216919,137.785782 241.136032,143.383636 
	C240.761139,169.330475 241.015442,195.285889 240.907562,221.237656 
	C240.891769,225.038574 242.456390,226.353348 246.002777,226.021149 
	C247.323837,225.897400 248.662048,225.956909 250.441818,225.954071 
	C253.582138,225.973785 256.273071,225.972275 258.964020,225.970764 
z"/>
<path fill="#4CD5BA" opacity="1.000000" stroke="none" 
	d="
M311.365417,96.851349 
	C310.983002,96.763481 310.969391,96.383659 310.978607,95.724945 
	C310.988159,87.100655 310.988495,79.135078 310.988831,71.169510 
	C315.608582,71.854294 320.246490,72.450241 324.815125,73.384811 
	C325.199585,73.463455 325.467896,75.901573 325.171021,77.088676 
	C324.752777,78.761063 322.945343,80.397499 323.141724,81.860023 
	C324.178680,89.583778 321.144653,94.224892 313.383667,96.181396 
	C312.708740,96.586029 312.228271,96.762619 311.365417,96.851349 
z"/>
<path fill="#48CCC2" opacity="1.000000" stroke="none" 
	d="
M310.760620,71.119591 
	C310.988495,79.135078 310.988159,87.100655 310.970032,95.535095 
	C307.882965,96.308357 304.813690,96.612755 301.440430,96.947296 
	C301.037079,89.399963 300.657257,82.292480 300.247284,74.620888 
	C301.065460,74.092964 302.857727,72.936501 304.806946,71.460938 
	C306.381195,71.068825 307.798492,70.995819 309.642303,70.967056 
	C310.068817,71.011307 310.532379,71.069679 310.760620,71.119591 
z"/>
<path fill="#6CD8A6" opacity="1.000000" stroke="none" 
	d="
M371.166138,72.235474 
	C370.817535,71.535248 370.663239,70.686859 370.454376,70.673210 
	C364.692841,70.296928 358.714294,67.972412 353.217285,72.680168 
	C348.298981,72.647385 343.602631,72.321548 338.453949,71.995621 
	C336.309814,71.332458 334.650787,70.218956 332.919861,70.092911 
	C328.206970,69.749733 323.463654,69.824020 318.415222,69.489014 
	C343.182434,69.123756 368.267059,69.040710 393.350769,68.840004 
	C397.157166,68.809555 397.760681,71.056458 397.753082,73.973366 
	C397.719818,86.762482 397.648590,99.551491 397.373657,112.685791 
	C396.778198,111.339371 396.090698,109.650917 396.073029,107.955498 
	C395.967834,97.852066 396.022095,87.747025 396.013336,77.642532 
	C396.007172,70.557602 395.452728,70.007195 388.381653,70.002228 
	C386.559570,70.000946 384.737457,70.017632 382.455261,70.045883 
	C379.167633,70.850174 376.340149,71.634644 373.249542,72.692169 
	C372.435944,72.802254 371.885468,72.639290 371.166138,72.235474 
z"/>
<path fill="#282828" opacity="1.000000" stroke="none" 
	d="
M492.865112,328.439148 
	C499.789093,327.987091 506.660156,327.982178 514.046570,327.975952 
	C514.343201,328.371826 514.122864,329.116699 513.906006,329.115723 
	C506.874542,329.083557 499.843414,328.979584 492.865112,328.439148 
z"/>
<path fill="#6CD8A6" opacity="1.000000" stroke="none" 
	d="
M396.424988,159.869904 
	C396.250244,153.547760 396.402771,146.958084 396.827271,140.179413 
	C396.983612,146.527740 396.867950,153.065063 396.424988,159.869904 
z"/>
<path fill="#5EA1E1" opacity="1.000000" stroke="none" 
	d="
M252.639099,104.689835 
	C253.702774,102.741562 254.898193,100.906311 256.381104,98.928581 
	C256.668610,98.786110 256.920837,98.909424 256.983612,99.328461 
	C256.363708,101.156700 255.681015,102.565910 254.737961,104.076767 
	C253.996750,104.461632 253.515915,104.744835 253.035095,105.028046 
	C253.035095,105.028046 252.770874,104.802849 252.639099,104.689835 
z"/>
<path fill="#6CD8A6" opacity="1.000000" stroke="none" 
	d="
M397.334839,133.740036 
	C396.933624,132.163635 396.735809,130.300110 396.838165,128.203720 
	C397.271637,129.798203 397.404938,131.625549 397.334839,133.740036 
z"/>
<path fill="#59E991" opacity="1.000000" stroke="none" 
	d="
M385.656982,190.005341 
	C382.815186,186.936234 386.545624,186.687241 388.116089,185.169098 
	C387.627472,186.674820 386.776886,188.246124 385.656982,190.005341 
z"/>
<path fill="#303030" opacity="1.000000" stroke="none" 
	d="
M121.407272,329.933533 
	C122.274635,329.579498 123.543114,329.292725 124.899025,329.320587 
	C123.927109,329.757080 122.867752,329.878937 121.407272,329.933533 
z"/>
<path fill="#40B6D4" opacity="1.000000" stroke="none" 
	d="
M276.248901,117.844040 
	C276.484161,117.026299 276.990967,116.049789 277.834656,115.068230 
	C277.621185,115.937210 277.070831,116.811241 276.248901,117.844040 
z"/>
<path fill="#59E991" opacity="1.000000" stroke="none" 
	d="
M389.282257,183.818481 
	C389.426392,182.716080 389.839508,181.426437 390.607513,180.069672 
	C390.492004,181.212112 390.021606,182.421677 389.282257,183.818481 
z"/>
<path fill="#59E49E" opacity="1.000000" stroke="none" 
	d="
M379.249084,198.737640 
	C379.442474,197.937866 379.920959,197.023270 380.744751,196.085602 
	C380.571411,196.915970 380.052795,197.769394 379.249084,198.737640 
z"/>
<path fill="#4ED0BE" opacity="1.000000" stroke="none" 
	d="
M297.617798,119.966049 
	C297.499725,120.597343 297.073334,121.268242 296.324097,122.012833 
	C296.001190,122.086525 295.519501,122.031586 295.278320,122.010506 
	C295.794586,121.328171 296.552032,120.666908 297.617798,119.966049 
z"/>
<path fill="#303030" opacity="1.000000" stroke="none" 
	d="
M126.755768,271.645752 
	C125.978188,271.674622 125.293945,271.395599 124.609695,271.116608 
	C125.053673,270.765839 125.497658,270.415100 126.322006,270.068604 
	C126.751297,270.494507 126.800201,270.916199 126.755768,271.645752 
z"/>
<path fill="#59E49E" opacity="1.000000" stroke="none" 
	d="
M348.333740,139.646057 
	C348.005310,139.195450 348.003906,138.854416 347.999420,138.256714 
	C348.614319,138.323425 349.232330,138.646835 349.922180,139.236282 
	C349.549591,139.586746 349.105164,139.671188 348.333740,139.646057 
z"/>
<path fill="#49C1CB" opacity="1.000000" stroke="none" 
	d="
M281.249481,111.798584 
	C281.436005,111.280930 281.894165,110.674385 282.663513,110.032478 
	C282.490204,110.567978 282.005676,111.138847 281.249481,111.798584 
z"/>
<path fill="#282828" opacity="1.000000" stroke="none" 
	d="
M492.967285,248.250824 
	C493.261597,248.215271 493.413422,248.398071 493.520294,248.604156 
	C493.538849,248.639954 493.367615,248.774185 493.114410,248.937408 
	C492.899689,248.833588 492.854614,248.655334 492.967285,248.250824 
z"/>
<path fill="#59E49E" opacity="1.000000" stroke="none" 
	d="
M382.280121,194.967056 
	C382.027313,194.864105 382.018890,194.688812 382.018402,194.250183 
	C382.026337,193.986816 382.473907,193.992630 382.696899,193.995239 
	C382.788116,194.296799 382.656311,194.595764 382.280121,194.967056 
z"/>
<path fill="#49C1CB" opacity="1.000000" stroke="none" 
	d="
M285.298340,108.031174 
	C285.229950,107.822952 285.418945,107.533035 285.858032,107.151642 
	C285.923950,107.356606 285.739868,107.653046 285.298340,108.031174 
z"/>
<path fill="#59E49E" opacity="1.000000" stroke="none" 
	d="
M381.291443,195.995728 
	C381.222656,195.800079 381.399841,195.516708 381.812012,195.132141 
	C381.877167,195.323288 381.707306,195.615646 381.291443,195.995728 
z"/>
<path fill="#4ED0BE" opacity="1.000000" stroke="none" 
	d="
M300.668152,117.940384 
	C300.696228,118.161537 300.437653,118.467628 299.869507,118.824944 
	C299.833771,118.592552 300.107635,118.308937 300.668152,117.940384 
z"/>
<path fill="#4ED0BE" opacity="1.000000" stroke="none" 
	d="
M298.735870,119.128464 
	C298.872864,119.404686 298.674713,119.641144 298.161133,119.871964 
	C297.974609,119.578171 298.159607,119.318970 298.735870,119.128464 
z"/>
<path fill="#59E49E" opacity="1.000000" stroke="none" 
	d="
M384.219971,192.629761 
	C384.075836,192.634720 384.319061,192.264832 384.404053,192.196472 
	C384.614716,192.336075 384.573059,192.501617 384.219971,192.629761 
z"/>
<path fill="#58D9B2" opacity="1.000000" stroke="none" 
	d="
M367.777191,139.061493 
	C367.951447,138.995834 367.982910,139.406540 367.983887,139.611893 
	C367.984863,139.817245 367.503113,139.861191 367.289307,139.748627 
	C367.196472,139.409637 367.372314,139.240005 367.777191,139.061493 
z"/>
<path fill="#5EDCAC" opacity="1.000000" stroke="none" 
	d="
M318.697968,156.378311 
	C318.894562,156.460403 318.612885,156.668442 318.612885,156.668442 
	C318.612885,156.668442 318.275360,156.628830 318.192017,156.545227 
	C318.108673,156.461609 318.501373,156.296219 318.697968,156.378311 
z"/>
<path fill="#56DFA8" opacity="1.000000" stroke="none" 
	d="
M355.278046,217.861206 
	C355.249573,217.664230 355.473267,217.424469 355.942139,217.123932 
	C355.968262,217.314896 355.749237,217.566666 355.278046,217.861206 
z"/>
<path fill="#59E49E" opacity="1.000000" stroke="none" 
	d="
M375.269775,202.952484 
	C375.212616,202.755280 375.406433,202.484421 375.837463,202.120453 
	C375.890045,202.311172 375.705414,202.595001 375.269775,202.952484 
z"/>
<path fill="#FBFBFB" opacity="1.000000" stroke="none" 
	d="
M264.130676,292.638550 
	C264.713318,286.442505 264.648926,280.533325 266.061829,275.001495 
	C267.944885,267.629028 273.547028,264.031952 280.847443,264.066620 
	C288.052460,264.100830 292.946503,267.540283 295.360077,274.722260 
	C298.191711,283.148102 297.930786,291.781433 295.861511,300.277527 
	C293.971100,308.039032 288.820007,311.936951 281.275970,312.134674 
	C273.299744,312.343689 268.269531,308.758789 265.794952,300.849304 
	C265.009094,298.337402 264.679657,295.682739 264.130676,292.638550 
z"/>
<path fill="#FAFAFA" opacity="1.000000" stroke="none" 
	d="
M203.597046,274.677124 
	C204.181549,281.600433 205.557266,288.266113 204.849625,294.702759 
	C203.471344,307.239258 194.891571,312.798523 181.374908,310.866333 
	C181.374908,295.860504 181.374908,280.805023 181.374908,265.753052 
	C191.494415,263.379059 198.847992,266.236877 203.597046,274.677124 
z"/>
<path fill="#F4F4F4" opacity="1.000000" stroke="none" 
	d="
M376.765930,295.667084 
	C371.145111,295.874878 365.868073,295.874878 360.156158,295.874878 
	C362.987244,284.475983 365.692902,273.582214 368.398529,262.688446 
	C368.653046,262.625671 368.907562,262.562866 369.162079,262.500061 
	C371.811279,273.486481 374.460480,284.472870 376.765930,295.667084 
z"/>
<path fill="#F8F8F8" opacity="1.000000" stroke="none" 
	d="
M448.521606,265.088196 
	C455.554199,266.686890 457.962891,270.019714 456.760925,275.929108 
	C455.511383,282.072266 450.567566,284.758301 442.120056,283.689972 
	C442.120056,277.681366 442.120056,271.634216 442.120056,265.050171 
	C444.220947,265.050171 446.155273,265.050171 448.521606,265.088196 
z"/>
<path fill="#F8F8F8" opacity="1.000000" stroke="none" 
	d="
M514.825806,275.973358 
	C514.826111,272.199432 514.826111,268.914185 514.826111,265.316162 
	C519.953369,264.979523 525.458130,263.687286 528.215088,268.416595 
	C529.797974,271.131927 529.609192,275.983856 528.290222,279.042725 
	C525.990601,284.375793 520.555603,284.384369 514.825439,283.959869 
	C514.825439,281.329285 514.825439,278.895630 514.825806,275.973358 
z"/>
<path fill="#2E9BF2" opacity="1.000000" stroke="none" 
	d="
M252.977493,105.387497 
	C253.515915,104.744835 253.996750,104.461632 254.904739,104.414688 
	C255.884216,105.823868 256.753540,106.949043 256.938507,108.177284 
	C258.360291,117.618179 259.697418,127.072807 260.927032,136.540558 
	C261.110657,137.954346 260.657654,139.470505 260.388702,140.918793 
	C259.976135,143.140411 259.075958,145.341782 259.061981,147.556030 
	C258.950806,165.200836 259.035034,182.846786 258.973755,200.492081 
	C258.959534,204.593262 258.467834,208.693344 258.468292,212.793900 
	C258.468750,216.864182 258.812775,220.934448 259.006104,225.004715 
	C259.006104,225.004715 258.992157,225.488373 258.978088,225.729568 
	C256.273071,225.972275 253.582138,225.973785 250.444229,225.528198 
	C249.998199,218.519180 249.905411,211.955643 250.018646,205.395676 
	C250.293442,189.479004 250.991104,173.561768 250.882812,157.649078 
	C250.808746,146.762283 249.665359,135.882751 249.354492,124.943787 
	C252.212219,122.590431 253.742615,120.019348 252.520737,116.673355 
	C252.008209,116.538475 251.495667,116.403587 250.983139,116.268700 
	C250.322098,119.179169 249.661057,122.089638 248.651123,125.032684 
	C247.180801,125.369843 246.059387,125.674431 244.937958,125.979012 
	C246.619720,121.469795 248.260651,116.944740 250.000351,112.457977 
	C250.881531,110.185303 251.941025,107.981766 252.977493,105.387497 
z"/>
<path fill="#32A1EB" opacity="1.000000" stroke="none" 
	d="
M259.394409,224.960419 
	C258.812775,220.934448 258.468750,216.864182 258.468292,212.793900 
	C258.467834,208.693344 258.959534,204.593262 258.973755,200.492081 
	C259.035034,182.846786 258.950806,165.200836 259.061981,147.556030 
	C259.075958,145.341782 259.976135,143.140411 260.388702,140.918793 
	C260.657654,139.470505 261.110657,137.954346 260.927032,136.540558 
	C259.697418,127.072807 258.360291,117.618179 256.938507,108.177284 
	C256.753540,106.949043 255.884216,105.823868 255.165115,104.313034 
	C255.681015,102.565910 256.363708,101.156700 257.104126,99.400436 
	C258.383911,98.260269 259.553864,97.366753 260.841095,96.699486 
	C262.443115,95.869072 265.203461,94.239098 265.610077,94.676697 
	C267.141785,96.325058 268.482239,98.587601 268.815125,100.783699 
	C269.113617,102.753197 267.593964,104.936447 267.587433,107.027618 
	C267.575928,110.704597 268.444519,114.395348 268.313446,118.057739 
	C268.189453,121.522423 268.180847,125.530304 266.479248,128.284729 
	C263.164795,133.649872 263.631226,138.936417 263.835510,144.776901 
	C264.352173,159.548294 264.005554,174.349869 264.004944,189.139359 
	C264.004517,199.109787 263.839447,209.084442 264.094177,219.048355 
	C264.182465,222.501480 263.203094,224.409882 259.394409,224.960419 
z"/>
<path fill="#2B93F6" opacity="1.000000" stroke="none" 
	d="
M244.765106,126.307770 
	C246.059387,125.674431 247.180801,125.369843 248.651123,125.032631 
	C249.000000,125.000000 249.000000,124.999969 249.000000,124.999969 
	C249.665359,135.882751 250.808746,146.762283 250.882812,157.649078 
	C250.991104,173.561768 250.293442,189.479004 250.018646,205.395676 
	C249.905411,211.955643 249.998199,218.519180 249.994858,225.506973 
	C248.662048,225.956909 247.323837,225.897400 246.002777,226.021149 
	C242.456390,226.353348 240.891769,225.038574 240.907562,221.237656 
	C241.015442,195.285889 240.761139,169.330475 241.136032,143.383636 
	C241.216919,137.785782 243.385361,132.218094 244.765106,126.307770 
z"/>
<path fill="#2B93F6" opacity="1.000000" stroke="none" 
	d="
M249.000000,125.000046 
	C249.661057,122.089638 250.322098,119.179169 250.983139,116.268700 
	C251.495667,116.403587 252.008209,116.538475 252.520737,116.673355 
	C253.742615,120.019348 252.212219,122.590431 249.354492,124.943787 
	C249.000000,124.999969 249.000000,125.000000 249.000000,125.000046 
z"/>
</svg>